<svg width="500" height="136" viewBox="0 0 500 136" fill="none" xmlns="http://www.w3.org/2000/svg">
<g clip-path="url(#clip0_1_74)">
<path d="M68.7515 126.418C61.23 127.739 53.5762 128.135 45.6587 129.189L21.5093 58.459V132.225C13.9878 133.017 7.12598 134.072 0 135.128V0H20.0586L47.5059 76.6704V0H68.7515V126.418ZM110.319 49.4854C118.501 49.4854 131.038 49.0894 138.559 49.0894V70.2026C129.189 70.2026 118.237 70.2026 110.319 70.5986V102.006C122.724 101.214 135.128 100.158 147.664 99.7617V120.083L89.2051 124.702V0H147.664V21.1138H110.319V49.4854ZM226.181 21.1143H204.275V118.237C197.149 118.237 190.023 118.237 183.163 118.5V21.1143H161.257V0H226.182L226.181 21.1143ZM260.49 48.0342H289.39V69.1475H260.49V117.05H239.771V0H298.759V21.1138H260.49V48.0342ZM333.069 98.5747C345.078 98.8379 357.217 99.7632 368.962 100.422V121.272C350.092 120.083 331.222 118.897 311.956 118.5V0H333.069V98.5747ZM386.777 122.724C393.507 123.12 400.633 123.516 407.495 124.307V0H386.777V122.724ZM500 0L473.211 64.2651L500 135.128C492.082 134.072 484.164 132.621 476.246 131.301L461.071 92.2412L445.633 128.135C437.978 126.814 430.588 126.418 422.936 125.362L450.12 63.4727L425.574 0H448.271L462.126 35.4976L476.907 0H500V0Z" fill="#B9090B"/>
</g>
<defs>
<clipPath id="clip0_1_74">
<rect width="500" height="135.128" fill="white"/>
</clipPath>
</defs>
</svg>
